# xmcd
#
# Track frame offsets:
#   183
#   17375
#   31685
#   43898
#   55628
#   71255
#   84958
#   98610
#   117943
#   130415
#   140663
#   151655
#   164865
#   179325
#   191710
#
# Disc length: 2795 seconds
#
# Revision: 0
# Processed by: cddbd v1.5PL3 Copyright (c) Steve Scherf et al.
# Submitted via: Media_Universe 3.0
#
DISCID=be0ae90f
DTITLE=Varios - Lo Mejor Del Country II CD1
DYEAR=1994
DGENRE=Country
TTITLE0=John Denver/Calypso
TTITLE1=Bellamy Brothers/If I Said You Had A Beautiful Body
TTITLE2=Freddy Fender/Wasted Days And Wasten Nights
TTITLE3=Johnny Cash/Ring Of Fire
TTITLE4=Lynn Anderson/For The Good Times
TTITLE5=The Kingston Trio/Tom Dooley
TTITLE6=Jimmy DEan/Big Bad John
TTITLE7=The Judds/Water Of Love
TTITLE8=Crystal GAyle/Crazy
TTITLE9=Frankie Laine/I Believe
TTITLE10=Billie Jo Spears/Here You Come Again
TTITLE11=Hank Locklin/Please Help Me I'm Falling
TTITLE12=Glen Campbell/Rhinestone Cowboy
TTITLE13=Dolly Parton/Makin' Believe
TTITLE14=Billy Swan/I Can't Help
EXTD=
EXTT0=
EXTT1=
EXTT2=
EXTT3=
EXTT4=
EXTT5=
EXTT6=
EXTT7=
EXTT8=
EXTT9=
EXTT10=
EXTT11=
EXTT12=
EXTT13=
EXTT14=
PLAYORDER=
